<?xml version="1.0" standalone="no"?>
<!DOCTYPE svg PUBLIC "-//W3C//DTD SVG 20010904//EN"
 "http://www.w3.org/TR/2001/REC-SVG-20010904/DTD/svg10.dtd">
<svg version="1.0" xmlns="http://www.w3.org/2000/svg"
 width="400.000000pt" height="400.000000pt" viewBox="0 0 400.000000 400.000000"
 preserveAspectRatio="xMidYMid meet">
<metadata>
Created by potrace 1.14, written by Peter Selinger 2001-2017
</metadata>
<g transform="translate(0.000000,400.000000) scale(0.100000,-0.100000)"
fill="#000000" stroke="none">
<path d="M930 3019 c-30 -5 -63 -10 -72 -11 -10 -1 -18 -6 -18 -11 0 -4 -4 -5
-10 -2 -10 6 -99 -17 -154 -40 -17 -7 -33 -13 -36 -12 -6 1 -110 -57 -160 -88
-55 -35 -167 -142 -213 -204 -53 -71 -61 -84 -93 -151 -108 -226 -132 -503
-69 -814 3 -16 10 -37 16 -48 5 -10 7 -18 4 -18 -3 0 1 -13 10 -30 8 -16 15
-32 15 -35 -2 -13 62 -135 94 -179 50 -71 151 -171 223 -222 61 -44 200 -114
258 -129 17 -5 35 -10 40 -11 98 -31 287 -52 430 -48 140 4 242 22 390 71 98
32 252 109 263 131 7 13 9 263 3 293 -4 22 -38 12 -95 -26 -151 -104 -266
-152 -425 -181 -99 -17 -313 -18 -361 -1 -8 3 -37 10 -65 17 -115 26 -251 113
-321 203 -30 39 -86 138 -91 162 -1 5 -9 29 -17 51 -47 130 -54 404 -15 569 5
22 11 48 14 57 2 9 8 25 14 36 6 11 7 22 4 26 -3 3 -1 6 5 6 7 0 11 3 10 8 -6
18 70 132 126 187 87 86 226 155 351 173 93 13 335 6 400 -12 33 -9 67 -18 75
-21 17 -4 76 -28 130 -53 45 -21 134 -77 182 -114 26 -20 44 -27 58 -23 11 3
21 9 21 13 6 29 4 271 -2 288 -10 29 -197 123 -299 150 -146 38 -205 46 -380
49 -102 2 -210 -1 -240 -6z"/>
<path d="M2258 2986 c-12 -11 -14 -171 -14 -990 1 -857 3 -978 16 -986 25 -16
295 -13 309 3 8 10 12 232 13 771 l3 758 110 -187 c61 -103 121 -206 134 -228
13 -23 32 -55 41 -72 10 -16 95 -163 190 -325 95 -162 230 -392 299 -510 l126
-215 204 -3 c142 -2 208 1 217 9 19 16 21 1958 2 1977 -15 15 -280 17 -307 3
-16 -9 -17 -56 -17 -765 1 -416 -1 -756 -4 -756 -3 0 -28 39 -56 88 -28 48
-185 317 -349 597 -164 281 -337 576 -384 657 -47 81 -94 157 -103 168 -17 19
-29 20 -217 20 -157 0 -203 -3 -213 -14z"/>
</g>
</svg>
